{"title":"Tiny4k.Janice.Griffith.xXx.2014-ViK","uid":10710538,"size":472976155,"categoryP":"porn","categoryS":"movies","magnet":"?xt=urn:btih:d7da983bbad27c8609391facbf9862937da53a77&amp;dn=Tiny4k.Janice.Griffith.xXx.2014-ViK&amp;tr=udp%3A%2F%2Ftracker.openbittorrent.com%3A80&amp;tr=udp%3A%2F%2Fopen.demonii.com%3A1337&amp;tr=udp%3A%2F%2Ftracker.coppersurfer.tk%3A6969&amp;tr=udp%3A%2F%2Fexodus.desync.com%3A6969","seeders":0,"leechers":1,"uploader":"iH2OSO4","files":-1,"time":1407348609,"description":"Performer AKA \tJanice\nBirthday\tJuly 03, 1995 \nYears Active\t2013-2014 (Started around 18 years old)\nEthnicity\tCaucasian\nNationality/Heritage\tNo data\nHair Colors\tBrown/Dark Brown\nMeasurements\t32B-23-32\nHeight\t5 feet, 3 inches (160 cm)\nWeight\t85 lbs (39 kg)\nTattoos\tLeft side of neck below ear; script (several letters) below left breast; anchor on right side; right thumb; red flower on left hip\nNon-Ear Piercings\tRight nostril; frenulum of upper lip; navel; left and right side of abdomen\nComments\tThere are no comments for this performer.\n\nSOURCE :   &lt;a href=&quot; http://vasileturcu.ro/i/tykigy.html&quot; rel=&quot;nofollow&quot; target=&quot;_NEW&quot;&gt; http://vasileturcu.ro/i/tykigy.html&lt;/a&gt;\n\nTiny4k.Janice.Griffith.xXx.2014-ViK.mp4\nFormat                           : MPEG-4\nFormat profile                   : Base Media\nCodec ID                         : isom\nFile size                        : 451 MiB\nDuration                         : 23mn 30s\nOverall bit rate                 : 2 681 Kbps\nEncoded date                     : UTC 2014-08-06 14:55:45\nTagged date                      : UTC 2014-08-06 14:55:45\n\nVideo\nID                               : 1\nFormat                           : MPEG-4 Visual\nFormat profile                   : Simple@L1\nFormat settings, BVOP            : No\nFormat settings, QPel            : No\nFormat settings, GMC             : No warppoints\nFormat settings, Matrix          : Default (H.263)\nCodec ID                         : 20\nDuration                         : 23mn 30s\nBit rate mode                    : Variable\nBit rate                         : 2 552 Kbps\nMaximum bit rate                 : 4 517 Kbps\nWidth                            : 816 pixels\nHeight                           : 456 pixels\nDisplay aspect ratio             : 16:9\nOriginal display aspect ratio    : 16:9\nFrame rate mode                  : Constant\nFrame rate                       : 59.940 fps\nColor space                      : YUV\nChroma subsampling               : 4:2:0\nBit depth                        : 8 bits\nScan type                        : Progressive\nCompression mode                 : Lossy\nBits/(Pixel*Frame)               : 0.114\nStream size                      : 429 MiB (95%)\nWriting library                  : Lavc53.8.0\nEncoded date                     : UTC 2014-08-06 14:55:45\nTagged date                      : UTC 2014-08-06 14:56:20\n\nAudio\nID                               : 2\nFormat                           : AAC\nFormat/Info                      : Advanced Audio Codec\nFormat profile                   : LC\nCodec ID                         : 40\nDuration                         : 23mn 29s\nBit rate mode                    : Variable\nBit rate                         : 126 Kbps\nMaximum bit rate                 : 165 Kbps\nChannel(s)                       : 2 channels\nChannel positions                : Front: L R\nSampling rate                    : 44.1 KHz\nCompression mode                 : Lossy\nStream size                      : 21.1 MiB (5%)\nEncoded date                     : UTC 2014-08-06 14:56:16\nTagged date                      : UTC 2014-08-06 14:56:20\n","torrent":{"xt":"urn:btih:d7da983bbad27c8609391facbf9862937da53a77","amp;dn":"Tiny4k.Janice.Griffith.xXx.2014-ViK","amp;tr":["udp%3A%2F%2Ftracker.openbittorrent.com%3A80","udp%3A%2F%2Fopen.demonii.com%3A1337","udp%3A%2F%2Ftracker.coppersurfer.tk%3A6969","udp%3A%2F%2Fexodus.desync.com%3A6969"],"infoHash":"d7da983bbad27c8609391facbf9862937da53a77","infoHashBuffer":{"type":"Buffer","data":[215,218,152,59,186,210,124,134,9,57,31,172,191,152,98,147,125,165,58,119]},"announce":[],"urlList":[]}}